<?xml version="1.0" encoding="utf-8"?>
<!-- Generator: Adobe Illustrator 25.0.0, SVG Export Plug-In . SVG Version: 6.00 Build 0)  -->
<svg version="1.1" id="Layer_1" xmlns="http://www.w3.org/2000/svg" xmlns:xlink="http://www.w3.org/1999/xlink" x="0px" y="0px"
	 viewBox="0 0 88.1 16.6" style="enable-background:new 0 0 88.1 16.6;" xml:space="preserve">
<g>
	<path d="M0,6.6C0,2.7,2.3,0,5.8,0c3.5,0,5.8,2.7,5.8,6.6c0,4-2.3,6.6-5.8,6.6C2.3,13.3,0,10.6,0,6.6z M9.8,6.6
		c0-3.1-1.6-5.2-4.1-5.2c-2.4,0-4.1,2.1-4.1,5.2c0,3.1,1.6,5.2,4.1,5.2C8.2,11.9,9.8,9.8,9.8,6.6z"/>
	<path d="M13.8,3.8h1.5v1.7h0.1c0.4-1,1.2-1.8,3.1-1.8c0.4,0,0.7,0.1,0.7,0.1v1.5h-0.1c0,0-0.3-0.1-0.8-0.1c-2.4,0-3,1.3-3,3.3v4.6
		h-1.5V3.8z"/>
	<path d="M20.4,8.4c0-2.9,1.6-4.8,4.1-4.8c1.2,0,2.3,0.5,2.8,1.4h0.1V0.2h1.5v11.2c0,0.9,0.1,1.3,0.2,1.7v0.1h-1.6
		c-0.1-0.2-0.1-0.7-0.1-1.2h-0.1c-0.6,0.9-1.6,1.4-2.9,1.4C22,13.3,20.4,11.3,20.4,8.4z M27.4,8.4c0-2.3-1.1-3.5-2.7-3.5
		c-1.6,0-2.7,1.4-2.7,3.5c0,2.2,1.1,3.6,2.7,3.6C26.4,12.1,27.4,10.6,27.4,8.4z"/>
	<path d="M31.7,0.2h1.7V2h-1.7V0.2z M31.8,3.8h1.5v9.3h-1.5V3.8z"/>
	<path d="M36,3.8h1.5v1.2h0.1c0.5-0.9,1.6-1.4,2.9-1.4c2.2,0,3.3,1.4,3.3,3.6v5.9h-1.5V7.2c0-1.6-0.9-2.3-2.2-2.3
		c-1.7,0-2.6,1.3-2.6,3.4v4.9H36V3.8z"/>
	<path d="M45.9,10.5c0-2.2,1.8-2.7,4.1-2.9l2.2-0.2c0-1.8-0.9-2.6-2.2-2.6c-1.5,0-2.2,0.7-2.2,1.9h-1.6c0.1-2,1.5-3.1,3.8-3.1
		c2.3,0,3.7,1.5,3.7,3.7v4.1c0,0.8,0.2,1.2,0.4,1.7v0.1h-1.6c-0.3-0.4-0.3-1.2-0.3-1.2h-0.1c-0.4,0.9-1.6,1.4-3,1.4
		C47.2,13.3,45.9,12.2,45.9,10.5z M52.2,9.4V8.6L50,8.8c-1.8,0.2-2.5,0.7-2.5,1.6c0,1,0.9,1.6,2.1,1.6C51.5,12.1,52.2,10.7,52.2,9.4
		z"/>
	<path d="M67.8,11.9L67.8,11.9c-0.6,0.9-1.8,1.4-3,1.4c-2.4,0-4-1.9-4-4.8c0-2.9,1.6-4.9,4-4.9c1.2,0,2.4,0.6,2.9,1.4h0.1V3.8h1.5
		v12.8h-1.5C67.7,16.6,67.7,12.7,67.8,11.9z M67.7,8.5c0-2.2-1-3.6-2.7-3.6c-1.6,0-2.7,1.5-2.7,3.6c0,2.1,1.1,3.5,2.7,3.5
		C66.6,12.1,67.7,10.8,67.7,8.5z"/>
	<path d="M71.7,9.7V3.8h1.5v5.9c0,1.6,0.8,2.3,2.1,2.3c1.7,0,2.5-1.3,2.5-3.4V3.8h1.5v9.3h-1.5v-1.2h-0.1c-0.5,0.9-1.5,1.4-2.8,1.4
		C72.7,13.3,71.7,11.9,71.7,9.7z"/>
	<path d="M81.9,0.2h1.7V2h-1.7V0.2z M82,3.8h1.5v9.3H82V3.8z"/>
	<path d="M86.3,11.3h1.8v1.9h-1.8V11.3z M86.4,4.9V0.2H88v4.7l-0.5,5.2h-0.7L86.4,4.9z"/>
</g>
</svg>
