<?xml version="1.0" encoding="utf-8"?>
<!-- Generator: Adobe Illustrator 25.0.0, SVG Export Plug-In . SVG Version: 6.00 Build 0)  -->
<svg version="1.1" id="Layer_1" xmlns="http://www.w3.org/2000/svg" xmlns:xlink="http://www.w3.org/1999/xlink" x="0px" y="0px"
	 viewBox="0 0 47.6 16.6" style="enable-background:new 0 0 47.6 16.6;" xml:space="preserve">
<style type="text/css">
	.st0{fill:#FFFFFF;}
</style>
<rect width="47.6" height="16.6"/>
<g>
	<path class="st0" d="M2,8.6c0-3.2,1.8-5.3,4.6-5.3s4.6,2.1,4.6,5.3s-1.8,5.3-4.6,5.3S2,11.8,2,8.6z M9.8,8.6c0-2.5-1.3-4.1-3.2-4.1
		S3.4,6.2,3.4,8.6c0,2.5,1.3,4.1,3.2,4.1S9.8,11.1,9.8,8.6z"/>
	<path class="st0" d="M12.9,6.4h1.2v1.3h0.1c0.4-0.8,1-1.4,2.5-1.4c0.3,0,0.5,0.1,0.5,0.1v1.2h0c0,0-0.3,0-0.7,0
		c-1.9,0-2.4,1.1-2.4,2.6v3.6h-1.2V6.4z"/>
	<path class="st0" d="M18.2,10c0-2.3,1.3-3.8,3.2-3.8c0.9,0,1.8,0.4,2.2,1.1h0.1V3.5h1.2v8.8c0,0.7,0.1,1.1,0.2,1.3v0.1h-1.2
		c-0.1-0.2-0.1-0.5-0.1-1h-0.1c-0.4,0.7-1.3,1.1-2.3,1.1C19.4,13.9,18.2,12.3,18.2,10z M23.7,10c0-1.8-0.9-2.8-2.1-2.8
		c-1.3,0-2.1,1.1-2.1,2.8c0,1.7,0.8,2.9,2.1,2.9C22.9,12.9,23.7,11.8,23.7,10z"/>
	<path class="st0" d="M27.1,3.5h1.3V5h-1.3V3.5z M27.1,6.4h1.2v7.4h-1.2V6.4z"/>
	<path class="st0" d="M30.5,6.4h1.2v1h0.1C32.1,6.7,33,6.3,34,6.3c1.7,0,2.6,1.1,2.6,2.8v4.7h-1.2V9.1c0-1.3-0.7-1.8-1.7-1.8
		c-1.3,0-2.1,1.1-2.1,2.7v3.9h-1.2V6.4z"/>
	<path class="st0" d="M38.3,11.7c0-1.7,1.5-2.1,3.3-2.3l1.7-0.1c0-1.5-0.7-2-1.7-2c-1.2,0-1.7,0.6-1.7,1.5h-1.2c0-1.6,1.2-2.5,3-2.5
		c1.8,0,2.9,1.1,2.9,2.9v3.2c0,0.6,0.1,1,0.3,1.3v0.1h-1.2c-0.2-0.3-0.2-1-0.2-1h-0.1c-0.3,0.7-1.3,1.1-2.4,1.1
		C39.3,13.9,38.3,13,38.3,11.7z M43.3,10.8v-0.6l-1.7,0.2c-1.4,0.2-2,0.5-2,1.3c0,0.8,0.7,1.2,1.6,1.2
		C42.7,12.9,43.3,11.8,43.3,10.8z"/>
</g>
</svg>
